<?xml version="1.0" encoding="UTF-8"?>
<svg xmlns="http://www.w3.org/2000/svg" xmlns:xlink="http://www.w3.org/1999/xlink" version="1.1" id="Layer_1" x="0px" y="0px" viewBox="0 0 24 24" style="enable-background:new 0 0 24 24;" xml:space="preserve">
<g>
	<path style="fill:#303C42;" d="M20,12H4c-1.654,0-3,1.346-3,3v5c0,1.654,1.346,3,3,3h16c1.654,0,3-1.346,3-3v-5   C23,13.346,21.654,12,20,12z"/>
	<path style="fill:#E53935;" d="M22,20c0,1.103-0.897,2-2,2H4c-1.103,0-2-0.897-2-2v-5c0-1.103,0.897-2,2-2h16c1.103,0,2,0.897,2,2   V20z"/>
	<path style="opacity:0.2;fill:#FFFFFF;" d="M2.625,20v-5c0-1.103,0.841-2,1.875-2H4c-1.103,0-2,0.897-2,2v5c0,1.103,0.897,2,2,2   h0.5C3.466,22,2.625,21.103,2.625,20z"/>
	<path style="opacity:0.1;" d="M20,13h-0.5c1.034,0,1.875,0.897,1.875,2v5c0,1.103-0.841,2-1.875,2H20c1.103,0,2-0.897,2-2v-5   C22,13.897,21.103,13,20,13z"/>
	<path style="fill:#303C42;" d="M7.5,15C7.776,15,8,14.776,8,14.5S7.776,14,7.5,14h-4C3.224,14,3,14.224,3,14.5S3.224,15,3.5,15H5   v5.5C5,20.776,5.224,21,5.5,21S6,20.776,6,20.5V15H7.5z"/>
	<path style="fill:#303C42;" d="M10.5,16c-0.276,0-0.5,0.224-0.5,0.5v2.75C10,19.664,9.664,20,9.25,20h-0.5   C8.336,20,8,19.664,8,19.25V16.5C8,16.224,7.776,16,7.5,16S7,16.224,7,16.5v2.75C7,20.215,7.785,21,8.75,21h0.5   c0.307,0,0.592-0.086,0.843-0.226C10.182,20.907,10.327,21,10.5,21c0.276,0,0.5-0.224,0.5-0.5v-4C11,16.224,10.776,16,10.5,16z"/>
	<path style="fill:#303C42;" d="M19.25,16h-0.5C17.785,16,17,16.785,17,17.75v1.5c0,0.965,0.785,1.75,1.75,1.75h0.75   c0.522,0,1-0.278,1.276-0.745c0.141-0.237,0.063-0.544-0.174-0.685c-0.237-0.142-0.544-0.063-0.685,0.174   C19.871,19.821,19.739,20,19.5,20h-0.75C18.336,20,18,19.664,18,19.25V19h2.5c0.276,0,0.5-0.224,0.5-0.5v-0.75   C21,16.785,20.215,16,19.25,16z M20,18h-2v-0.25c0-0.414,0.336-0.75,0.75-0.75h0.5c0.414,0,0.75,0.336,0.75,0.75V18z"/>
	<path style="fill:#303C42;" d="M6,6.597V10.5C6,10.776,6.224,11,6.5,11S7,10.776,7,10.5V6.597l1.964-4.911   c0.103-0.256-0.022-0.547-0.279-0.65c-0.254-0.104-0.547,0.021-0.65,0.279L6.5,5.154L4.964,1.315   c-0.103-0.257-0.396-0.382-0.65-0.279C4.058,1.139,3.933,1.43,4.036,1.686L6,6.597z"/>
	<path style="fill:#303C42;" d="M9,9c0,1.103,0.897,2,2,2s2-0.897,2-2V6c0-1.103-0.897-2-2-2S9,4.897,9,6V9z M10,6   c0-0.551,0.449-1,1-1s1,0.449,1,1v3c0,0.551-0.449,1-1,1s-1-0.449-1-1V6z"/>
	<path style="fill:#303C42;" d="M16,11c0.383,0,0.738-0.114,1.042-0.301C17.119,10.876,17.295,11,17.5,11c0.276,0,0.5-0.224,0.5-0.5   V9V4.5C18,4.224,17.776,4,17.5,4S17,4.224,17,4.5V9c0,0.551-0.449,1-1,1s-1-0.449-1-1V4.5C15,4.224,14.776,4,14.5,4   S14,4.224,14,4.5V9C14,10.103,14.897,11,16,11z"/>
	<path style="fill:#303C42;" d="M14.25,16h-0.5c-0.269,0-0.522,0.066-0.75,0.176V14.5c0-0.276-0.224-0.5-0.5-0.5S12,14.224,12,14.5   v3.25v1.5v1.25c0,0.276,0.224,0.5,0.5,0.5c0.173,0,0.318-0.093,0.407-0.226C13.158,20.914,13.443,21,13.75,21h0.5   c0.965,0,1.75-0.785,1.75-1.75v-1.5C16,16.785,15.215,16,14.25,16z M15,19.25c0,0.414-0.336,0.75-0.75,0.75h-0.5   C13.336,20,13,19.664,13,19.25v-1.5c0-0.414,0.336-0.75,0.75-0.75h0.5c0.414,0,0.75,0.336,0.75,0.75V19.25z"/>
	<linearGradient id="SVGID_1_" gradientUnits="userSpaceOnUse" x1="0.5177" y1="8.8576" x2="23.5069" y2="19.5777">
		<stop offset="0" style="stop-color:#FFFFFF;stop-opacity:0.2"/>
		<stop offset="1" style="stop-color:#FFFFFF;stop-opacity:0"/>
	</linearGradient>
	<path style="fill:url(#SVGID_1_);" d="M20,12H4c-1.654,0-3,1.346-3,3v5c0,1.654,1.346,3,3,3h16c1.654,0,3-1.346,3-3v-5   C23,13.346,21.654,12,20,12z M6,6.597V10.5C6,10.776,6.224,11,6.5,11S7,10.776,7,10.5V6.597l1.964-4.911   c0.103-0.256-0.022-0.547-0.279-0.65c-0.254-0.104-0.547,0.021-0.65,0.279L6.5,5.154L4.964,1.315   c-0.103-0.257-0.396-0.382-0.65-0.279C4.058,1.139,3.933,1.43,4.036,1.686L6,6.597z M9,9c0,1.103,0.897,2,2,2s2-0.897,2-2V6   c0-1.103-0.897-2-2-2S9,4.897,9,6V9z M10,6c0-0.551,0.449-1,1-1s1,0.449,1,1v3c0,0.551-0.449,1-1,1s-1-0.449-1-1V6z M16,11   c0.383,0,0.738-0.114,1.042-0.301C17.119,10.876,17.295,11,17.5,11c0.276,0,0.5-0.224,0.5-0.5v-6C18,4.224,17.776,4,17.5,4   S17,4.224,17,4.5V9c0,0.551-0.449,1-1,1s-1-0.449-1-1V4.5C15,4.224,14.776,4,14.5,4S14,4.224,14,4.5V9C14,10.103,14.897,11,16,11z"/>
</g>
<g>
</g>
<g>
</g>
<g>
</g>
<g>
</g>
<g>
</g>
<g>
</g>
<g>
</g>
<g>
</g>
<g>
</g>
<g>
</g>
<g>
</g>
<g>
</g>
<g>
</g>
<g>
</g>
<g>
</g>

	<metadata>
		<rdf:RDF xmlns:rdf="http://www.w3.org/1999/02/22-rdf-syntax-ns#" xmlns:rdfs="http://www.w3.org/2000/01/rdf-schema#" xmlns:dc="http://purl.org/dc/elements/1.1/">
			<rdf:Description about="https://iconscout.com/legal#licenses" dc:title="social; media; social media; logo; youtube (2)" dc:description="social; media; social media; logo; youtube (2)" dc:publisher="Iconscout" dc:date="2017-03-22" dc:format="image/svg+xml" dc:language="en">
				<dc:creator>
					<rdf:Bag>
						<rdf:li>Alpár - Etele Méder</rdf:li>
					</rdf:Bag>
				</dc:creator>
			</rdf:Description>
		</rdf:RDF>
    </metadata></svg>
